<svg width="159" height="105" viewBox="0 0 159 105" fill="none" xmlns="http://www.w3.org/2000/svg">
<path d="M126.562 104.297C121.387 104.297 116.602 103.467 112.207 101.807C107.91 100.146 104.199 97.7539 101.074 94.6289C97.9492 91.4062 95.5078 87.5488 93.75 83.0566C91.9922 78.5645 91.1133 73.4863 91.1133 67.8223C91.1133 55.0293 95.459 42.8223 104.15 31.2012C112.939 19.4824 125.684 9.08203 142.383 0L158.496 22.998C154.102 25.3418 150.195 27.6367 146.777 29.8828C143.457 32.1289 140.527 34.4238 137.988 36.7676C135.547 39.1113 133.398 41.5527 131.543 44.0918C129.785 46.5332 128.174 49.1699 126.709 52.002C131.494 52.002 135.791 52.6855 139.6 54.0527C143.506 55.4199 146.826 57.3242 149.561 59.7656C152.393 62.1094 154.541 64.8926 156.006 68.1152C157.568 71.2402 158.35 74.6094 158.35 78.2227C158.35 81.8359 157.568 85.2539 156.006 88.4766C154.541 91.6016 152.393 94.3359 149.561 96.6797C146.826 99.0234 143.506 100.879 139.6 102.246C135.693 103.613 131.348 104.297 126.562 104.297ZM35.4492 104.297C30.2734 104.297 25.4883 103.467 21.0938 101.807C16.7969 100.146 13.0859 97.7539 9.96094 94.6289C6.83594 91.4062 4.39453 87.5488 2.63672 83.0566C0.878906 78.5645 0 73.4863 0 67.8223C0 55.0293 4.3457 42.8223 13.0371 31.2012C21.8262 19.4824 34.5703 9.08203 51.2695 0L67.3828 22.998C62.9883 25.3418 59.082 27.6367 55.6641 29.8828C52.3438 32.1289 49.4141 34.4238 46.875 36.7676C44.4336 39.1113 42.2852 41.5527 40.4297 44.0918C38.6719 46.5332 37.0605 49.1699 35.5957 52.002C40.3809 52.002 44.6777 52.6855 48.4863 54.0527C52.3926 55.4199 55.7129 57.3242 58.4473 59.7656C61.2793 62.1094 63.4277 64.8926 64.8926 68.1152C66.4551 71.2402 67.2363 74.6094 67.2363 78.2227C67.2363 81.8359 66.4551 85.2539 64.8926 88.4766C63.4277 91.6016 61.2793 94.3359 58.4473 96.6797C55.7129 99.0234 52.3926 100.879 48.4863 102.246C44.5801 103.613 40.2344 104.297 35.4492 104.297Z" fill="url(#paint0_linear)"/>
<defs>
<linearGradient id="paint0_linear" x1="0" y1="0" x2="167.512" y2="17.3758" gradientUnits="userSpaceOnUse">
<stop stop-color="#074F71"/>
<stop offset="1" stop-color="#054563"/>
</linearGradient>
</defs>
</svg>
