<svg width="60" height="60" viewBox="0 0 60 60" fill="none" xmlns="http://www.w3.org/2000/svg">
<path d="M45.1946 22.2371L33.9716 11.0141C32.9102 9.9527 31.4989 9.36816 29.998 9.36816C28.4969 9.36816 27.0856 9.9527 26.0244 11.0141L14.8012 22.2371C12.6704 24.3679 12.6124 27.7977 14.6258 30.0001C12.6125 32.2023 12.6705 35.6316 14.8011 37.7623L26.0243 48.9854C27.086 50.0472 28.4973 50.632 29.9981 50.632C31.4989 50.632 32.9102 50.0472 33.9719 48.9854L45.195 37.7623C46.2562 36.7012 46.8406 35.2902 46.8406 33.789C46.8406 32.3731 46.3201 31.0374 45.3703 29.9998C47.3835 27.7973 47.3253 24.3678 45.1946 22.2371ZM15.6299 23.0657L26.853 11.8427C27.6931 11.0026 28.8101 10.5399 29.9981 10.5399C31.186 10.5399 32.303 11.0026 33.1431 11.8427L44.3661 23.0657C46.1003 24.7999 46.1003 27.6216 44.3661 29.3558L33.1431 40.5788C32.303 41.4188 31.186 41.8816 29.9981 41.8816C28.8101 41.8816 27.6931 41.4188 26.853 40.5788L15.6299 29.3558C13.8958 27.6216 13.8958 24.7999 15.6299 23.0657ZM44.3665 36.9337L33.1434 48.1568C32.303 48.9972 31.186 49.46 29.9982 49.46C28.8103 49.46 27.6933 48.9972 26.8529 48.1568L15.6297 36.9337C13.9577 35.2614 13.8988 32.5788 15.4513 30.8345L26.0245 41.4075C27.0859 42.4691 28.4972 43.0536 29.9981 43.0536C31.499 43.0536 32.9103 42.4691 33.9717 41.4075L44.5449 30.8342C45.2712 31.649 45.6689 32.6881 45.6689 33.7889C45.6688 34.977 45.2062 36.0937 44.3665 36.9337Z" fill="#F2F2F2"/>
</svg>
