<svg width="40" height="40" viewBox="0 0 40 40" fill="none" xmlns="http://www.w3.org/2000/svg">
<path d="M19.9947 29.1188C14.9672 29.1188 10.8759 25.0281 10.8759 20C10.8759 14.9725 14.9666 10.8813 19.9947 10.8813C25.0228 10.8813 29.1134 14.9719 29.1134 20C29.1134 25.0281 25.0228 29.1188 19.9947 29.1188ZM19.9947 12.1306C15.6559 12.1306 12.1253 15.6613 12.1253 20C12.1253 24.3388 15.6559 27.8694 19.9947 27.8694C24.3334 27.8694 27.8641 24.3388 27.8641 20C27.8641 15.6613 24.3341 12.1306 19.9947 12.1306ZM28.9853 11.8913L29.9591 10.9175C30.2034 10.6738 30.2034 10.2781 29.9591 10.0344C29.7147 9.79 29.3203 9.79 29.0759 10.0344L28.1022 11.0081C27.8578 11.2519 27.8578 11.6469 28.1022 11.8913C28.2241 12.0131 28.3841 12.0738 28.5441 12.0738C28.7034 12.0744 28.8634 12.0138 28.9853 11.8913ZM10.9103 29.9663L11.8841 28.9925C12.1278 28.7481 12.1278 28.3538 11.8841 28.1094C11.6397 27.865 11.2447 27.865 11.0009 28.1094L10.0272 29.0831C9.78281 29.3275 9.78281 29.7219 10.0272 29.9663C10.1491 30.0881 10.3091 30.1494 10.4691 30.1494C10.6291 30.1494 10.7884 30.0888 10.9103 29.9663ZM20.6178 7.90813V6.53125C20.6178 6.18563 20.3384 5.90625 19.9928 5.90625C19.6472 5.90625 19.3678 6.18563 19.3678 6.53125V7.90813C19.3678 8.25313 19.6472 8.5325 19.9928 8.5325C20.3384 8.5325 20.6178 8.25313 20.6178 7.90813ZM20.6178 33.47V32.0931C20.6178 31.7475 20.3384 31.4681 19.9928 31.4681C19.6472 31.4681 19.3678 31.7475 19.3678 32.0931V33.47C19.3678 33.8156 19.6472 34.0944 19.9928 34.0944C20.3384 34.0944 20.6178 33.815 20.6178 33.47ZM8.52469 20.0006C8.52469 19.6556 8.24531 19.3756 7.90031 19.3756H6.52344C6.17781 19.3756 5.89844 19.655 5.89844 20.0006C5.89844 20.3463 6.17844 20.625 6.52406 20.625H7.90094C8.24531 20.625 8.52469 20.3456 8.52469 20.0006ZM34.0872 20.0006C34.0872 19.6556 33.8078 19.3756 33.4622 19.3756H32.0853C31.7397 19.3756 31.4603 19.655 31.4603 20.0006C31.4603 20.3463 31.7397 20.625 32.0853 20.625H33.4622C33.8078 20.625 34.0872 20.3456 34.0872 20.0006ZM11.8841 11.8913C12.1278 11.6469 12.1278 11.2519 11.8841 11.0081L10.9103 10.0344C10.6666 9.79 10.2709 9.79 10.0272 10.0344C9.78281 10.2781 9.78281 10.6738 10.0272 10.9175L11.0009 11.8913C11.1228 12.0131 11.2828 12.0738 11.4428 12.0738C11.6022 12.0744 11.7616 12.0138 11.8841 11.8913ZM29.9591 29.9663C30.2034 29.7219 30.2034 29.3275 29.9591 29.0831L28.9853 28.1094C28.7409 27.865 28.3466 27.865 28.1022 28.1094C27.8578 28.3538 27.8578 28.7481 28.1022 28.9925L29.0759 29.9663C29.1978 30.0881 29.3578 30.1494 29.5178 30.1494C29.6766 30.1494 29.8366 30.0888 29.9591 29.9663Z" fill="#F2F2F2"/>
</svg>
