<svg width="60" height="60" viewBox="0 0 60 60" fill="none" xmlns="http://www.w3.org/2000/svg">
<path d="M39.0439 48.5775H20.9551V49.7494H39.0439V48.5775Z" fill="#F2F2F2"/>
<path d="M13.33 13.7467C14.0825 13.7467 14.723 13.2651 14.9643 12.5947H28.2835V12.7803C28.2835 13.324 28.7258 13.7662 29.2694 13.7662H30.8134C31.357 13.7662 31.7991 13.324 31.7991 12.7803V12.5947H45.0356C45.2769 13.2651 45.9173 13.7467 46.6698 13.7467C47.6282 13.7467 48.408 12.9669 48.408 12.0084C48.408 11.0499 47.6282 10.2702 46.6698 10.2702C45.917 10.2702 45.2763 10.7521 45.0352 11.4228H31.7993V11.2365C31.7993 10.6929 31.3571 10.2506 30.8135 10.2506H29.2695C28.7259 10.2506 28.2836 10.6929 28.2836 11.2365V11.4228H14.9646C14.7234 10.7521 14.0829 10.2702 13.33 10.2702C12.3716 10.2702 11.5918 11.0499 11.5918 12.0084C11.5918 12.9668 12.3716 13.7467 13.33 13.7467ZM46.6699 11.4419C46.9822 11.4419 47.2363 11.696 47.2363 12.0083C47.2363 12.3206 46.9822 12.5747 46.6699 12.5747C46.3576 12.5747 46.1035 12.3206 46.1035 12.0083C46.1035 11.696 46.3576 11.4419 46.6699 11.4419ZM29.4555 11.4225H30.6274V12.5944H29.4555V11.4225ZM13.33 11.4419C13.6423 11.4419 13.8964 11.696 13.8964 12.0083C13.8964 12.3206 13.6423 12.5747 13.33 12.5747C13.0177 12.5747 12.7637 12.3206 12.7637 12.0083C12.7637 11.696 13.0177 11.4419 13.33 11.4419Z" fill="#F2F2F2"/>
<path d="M42.2916 34.3604L32.3903 16.4063C32.2347 16.1335 31.9133 15.9994 31.6104 16.0797C31.3068 16.1603 31.0948 16.4358 31.0948 16.7499V30.3821C31.0948 30.9677 31.3065 31.5141 31.6908 31.9209C32.1495 32.4062 32.372 33.0424 32.3173 33.7121C32.2246 34.8499 31.2946 35.7625 30.1542 35.8351C29.5025 35.8762 28.884 35.6548 28.4111 35.2109C27.9377 34.7667 27.6769 34.1646 27.6769 33.5157C27.6769 32.9286 27.8967 32.3681 28.2957 31.9375C28.6901 31.5119 28.9074 30.9732 28.9074 30.4208V16.8952C28.9074 16.5812 28.6953 16.3055 28.3918 16.225C28.0883 16.1444 27.7675 16.2788 27.6077 16.5591L17.7978 34.3529C17.2765 35.2655 17.4209 36.4183 18.1457 37.1744L24.9542 46.6075C25.2817 47.0614 25.8115 47.3324 26.3715 47.3324H33.7141C34.2739 47.3324 34.8038 47.0614 35.1313 46.6076L41.9398 37.1744C42.6643 36.4183 42.8086 35.2656 42.2916 34.3604ZM41.0757 36.3816L41.0424 36.415L34.1807 45.9217C34.0729 46.0712 33.8983 46.1605 33.7138 46.1605H26.3712C26.1868 46.1605 26.0122 46.0712 25.9044 45.9216L19.0703 36.453L19.0428 36.415L19.0095 36.3816C18.6269 35.999 18.5471 35.4037 18.8198 34.9262L27.7356 18.7542V30.4209C27.7356 30.6771 27.6294 30.9329 27.4363 31.1411C26.8359 31.789 26.5052 32.6323 26.5052 33.5158C26.5052 34.4778 26.9076 35.4071 27.6093 36.0656C28.3208 36.7332 29.2499 37.0672 30.2287 37.0047C31.9457 36.8955 33.3459 35.521 33.4854 33.8075C33.5663 32.8167 33.2227 31.8357 32.5427 31.116C32.3648 30.9279 32.2668 30.6672 32.2668 30.3822V18.6085L41.27 34.9339C41.5381 35.4037 41.4583 35.999 41.0757 36.3816Z" fill="#F2F2F2"/>
</svg>
