<svg width="60" height="60" viewBox="0 0 60 60" fill="none" xmlns="http://www.w3.org/2000/svg">
<path d="M42.8127 14.3872H17.185C13.4234 14.3872 10.3633 17.4474 10.3633 21.2089V38.7912C10.3633 42.5528 13.4234 45.6129 17.185 45.6129H42.8126C46.5742 45.6129 49.6343 42.5528 49.6343 38.7912V21.2088C49.6345 17.4473 46.5742 14.3872 42.8127 14.3872ZM17.185 15.5591H42.8126C45.3085 15.5591 47.43 17.1865 48.1757 19.4354H11.822C12.5676 17.1865 14.6891 15.5591 17.185 15.5591ZM48.4626 38.7912C48.4626 41.9065 45.9282 44.441 42.8127 44.441H17.185C14.0697 44.441 11.5352 41.9065 11.5352 38.7912V21.2088C11.5352 21.0056 11.5465 20.805 11.5675 20.6072H48.4302C48.4513 20.805 48.4625 21.0056 48.4625 21.2088V38.7912H48.4626Z" fill="#F2F2F2"/>
<path d="M16.8358 18.3005C17.2079 18.3005 17.5095 17.9989 17.5095 17.6268C17.5095 17.2548 17.2079 16.9531 16.8358 16.9531C16.4637 16.9531 16.1621 17.2548 16.1621 17.6268C16.1621 17.9989 16.4637 18.3005 16.8358 18.3005Z" fill="#F2F2F2"/>
<path d="M19.6991 18.3005C20.0712 18.3005 20.3728 17.9989 20.3728 17.6268C20.3728 17.2548 20.0712 16.9531 19.6991 16.9531C19.327 16.9531 19.0254 17.2548 19.0254 17.6268C19.0254 17.9989 19.327 18.3005 19.6991 18.3005Z" fill="#F2F2F2"/>
<path d="M22.6034 18.3005C22.9755 18.3005 23.2771 17.9989 23.2771 17.6268C23.2771 17.2548 22.9755 16.9531 22.6034 16.9531C22.2313 16.9531 21.9297 17.2548 21.9297 17.6268C21.9297 17.9989 22.2313 18.3005 22.6034 18.3005Z" fill="#F2F2F2"/>
</svg>
