<svg width="41" height="65" viewBox="0 0 41 65" fill="none" xmlns="http://www.w3.org/2000/svg">
<path d="M0 0C5.46821 0 10.6509 0.637293 15.5478 1.91174C20.4448 3.18633 24.6888 5.14352 28.2798 7.78358C31.8709 10.4236 34.7275 13.792 36.8495 17.8886C38.9715 21.9853 40.0325 26.8557 40.0325 32.4999C40.0325 38.1443 38.9715 43.0147 36.8495 47.1113C34.7275 51.208 31.8709 54.5764 28.2798 57.2163C24.6888 59.8563 20.4448 61.8137 15.5478 63.0883C10.6509 64.3627 5.46821 65 0 65V64.1807C2.69326 64.1807 5.26422 63.68 7.71263 62.6786C10.1612 61.6771 12.324 59.9778 14.2012 57.5805C16.0783 55.1833 17.5881 51.9514 18.7308 47.8852C19.8734 43.8189 20.4448 38.6904 20.4448 32.4999C20.4448 26.3094 19.8734 21.1811 18.7308 17.1148C17.5881 13.0485 16.0783 9.81673 14.2012 7.41949C12.324 5.02211 10.1612 3.3228 7.71263 2.32141C5.26422 1.32003 2.69326 0.819339 0 0.819339V0V0Z" fill="#2C2A29"/>
<path d="M36.634 64.9983C38.5105 64.9983 40.0317 63.3667 40.0317 61.3539C40.0317 59.3411 38.5105 57.7095 36.634 57.7095C34.7575 57.7095 33.2363 59.3411 33.2363 61.3539C33.2363 63.3667 34.7575 64.9983 36.634 64.9983Z" fill="#074F71"/>
</svg>
